<?xml version="1.0" standalone="no"?><!DOCTYPE svg PUBLIC "-//W3C//DTD SVG 1.1//EN" "http://www.w3.org/Graphics/SVG/1.1/DTD/svg11.dtd"><svg t="1571660514974" class="icon" viewBox="0 0 1024 1024" version="1.1" xmlns="http://www.w3.org/2000/svg" p-id="2690" xmlns:xlink="http://www.w3.org/1999/xlink" width="200" height="200"><defs><style type="text/css"></style></defs><path d="M831.6 979.9H164.1c-31.8 0-57.7-25.9-57.7-57.7V222.7c0-31.8 25.9-57.7 57.7-57.7h298.7v72.1H178.5v670.7h638.7V599.5h72.1v322.7c0 31.9-25.9 57.7-57.7 57.7z" fill="#ffffff" p-id="2691"></path><path d="M264.6 362.3h186.2v48.1H264.6zM264.6 508.4h186.2v48.1H264.6z" fill="#ffffff" p-id="2692"></path><path d="M577.9 174.1H650v382.4h-72.1zM577.9 586.5l36 62.1 36.1-62.1z" fill="#ffffff" p-id="2693"></path><path d="M650 139V80.1c0-19.8-16.2-36-36-36s-36 16.2-36 36V139h72z" fill="#ffffff" p-id="2694"></path></svg>