<?xml version="1.0" standalone="no"?><!DOCTYPE svg PUBLIC "-//W3C//DTD SVG 1.1//EN" "http://www.w3.org/Graphics/SVG/1.1/DTD/svg11.dtd"><svg t="1572160302365" class="icon" viewBox="0 0 1025 1024" version="1.1" xmlns="http://www.w3.org/2000/svg" p-id="3306" xmlns:xlink="http://www.w3.org/1999/xlink" width="200.1953125" height="200"><defs><style type="text/css"></style></defs><path d="M982.492729 997.546667H44.224284a42.666667 42.666667 0 1 1 0-85.276445h938.268445a42.666667 42.666667 0 0 1 0 85.304889zM154.674062 846.620444a85.304889 85.304889 0 0 1-81.891555-62.264888 81.464889 81.464889 0 0 1 0-47.331556l56.746666-178.716444a42.666667 42.666667 0 0 1 10.24-16.611556l192.341334-200.874667L634.048284 38.4a127.943111 127.943111 0 0 1 180.849778 0l60.558222 60.586667a127.943111 127.943111 0 0 1 0 180.792889L573.490062 581.319111l-192.768 200.448a42.666667 42.666667 0 0 1-19.626666 11.52l-183.808 49.891556a80.611556 80.611556 0 0 1-22.613334 3.413333z m52.053334-253.326222l-52.053334 168.021334 172.743111-47.331556L513.358507 521.614222l170.609777-172.743111-119.011555-118.983111-170.581333 170.609778-187.676445 192.768zM625.486507 167.623111l120.718222 120.689778L814.869618 219.648a42.666667 42.666667 0 0 0 0-60.558222L754.738062 98.986667a42.666667 42.666667 0 0 0-60.558222 0l-68.664889 68.664889z" fill="#000000" p-id="3307"></path></svg>